# xmcd
#
# Track frame offsets: 
#        150
#        15890
#        32117
#        47832
#        64866
#        81523
#        99583
#        118654
#        138549
#        159349
#        179687
#        200441
#        214461
#        230556
#        246586
#
# Disc length: 3514 seconds
#
# Revision: 0
# Processed by: cddbd v1.5.2PL0 Copyright (c) Steve Scherf et al.
# Submitted via: ExactAudioCopy v0.95b3
#
DISCID=dd0db80f
DTITLE=Jimi Hendrix  - The Captain Coconut Experience - Disc 1
DYEAR=1900
DGENRE=
TTITLE0=Message To Love (4)
TTITLE1=Message To Love (5)
TTITLE2=Message To Love (6)
TTITLE3=Message To Love (51)
TTITLE4=Somewhere (4)
TTITLE5=Somewhere (5)
TTITLE6=Somewhere (6)
TTITLE7=Crash Landing (2)
TTITLE8=Crash Landing (4)
TTITLE9=Crash Landing (5)
TTITLE10=Crash Landing (7)
TTITLE11=Come Down Hard On Me Baby (4)
TTITLE12=Come Down Hard On Me Baby (5)
TTITLE13=Come Down Hard On Me Baby (6)
TTITLE14=Come Down Hard On Me Baby (8)
EXTD=
EXTT0=
EXTT1=
EXTT2=
EXTT3=
EXTT4=
EXTT5=
EXTT6=
EXTT7=
EXTT8=
EXTT9=
EXTT10=
EXTT11=
EXTT12=
EXTT13=
EXTT14=
PLAYORDER=
